<?xml version="1.0" standalone="no"?>
<!DOCTYPE svg PUBLIC "-//W3C//DTD SVG 20010904//EN"
 "http://www.w3.org/TR/2001/REC-SVG-20010904/DTD/svg10.dtd">
<svg version="1.0" xmlns="http://www.w3.org/2000/svg"
 width="512.000000pt" height="512.000000pt" viewBox="0 0 512.000000 512.000000"
 preserveAspectRatio="xMidYMid meet">

<g transform="translate(0.000000,512.000000) scale(0.100000,-0.100000)"
fill="#000000" stroke="none">
<path d="M370 5111 c-78 -24 -136 -79 -166 -157 -18 -47 -18 -68 4 -773 l22
-725 26 -54 c31 -64 101 -123 167 -142 65 -18 1425 23 1504 45 144 41 217 227
140 358 -33 56 -62 82 -122 108 -48 21 -56 22 -300 15 -137 -3 -322 -9 -410
-12 l-160 -5 79 76 c293 283 665 461 1084 520 231 33 564 10 782 -54 628 -182
1117 -652 1319 -1267 332 -1010 -219 -2107 -1226 -2444 -406 -136 -847 -135
-1247 1 -451 155 -851 490 -1071 899 -95 176 -113 201 -174 232 -101 53 -218
33 -292 -49 -52 -57 -73 -119 -66 -193 4 -47 17 -83 66 -176 495 -943 1535
-1458 2581 -1278 495 85 946 320 1305 679 201 201 338 392 465 650 116 234
183 445 227 710 26 157 26 573 0 730 -88 532 -320 989 -692 1360 -604 604
-1471 847 -2303 644 -180 -44 -307 -90 -487 -178 -245 -120 -438 -255 -621
-433 l-92 -89 -7 238 c-17 568 -18 582 -50 642 -55 101 -179 154 -285 122z"/>
</g>
</svg>
